<svg width="125" height="33" viewBox="0 0 125 33" fill="none" xmlns="http://www.w3.org/2000/svg">
<path d="M25.1949 15.2074C28.7226 15.2074 31.5823 12.3811 31.5823 8.89472C31.5823 5.40832 28.7226 2.58203 25.1949 2.58203C21.6673 2.58203 18.8076 5.40832 18.8076 8.89472C18.8076 12.3811 21.6673 15.2074 25.1949 15.2074Z" fill="#17A2B8"/>
<path d="M13.2637 12.1692L15.9083 14.7831C14.2035 16.468 12.145 17.3106 9.73319 17.3106C7.32123 17.3106 5.26285 16.468 3.55791 14.7831C1.85296 13.098 1.00049 11.0636 1.00049 8.67995C1.00049 6.29617 1.85296 4.26191 3.55791 2.57684C5.26285 0.891773 7.32123 0.049342 9.73319 0.049342C12.145 0.049342 14.2035 0.891773 15.9083 2.57684L13.2637 5.19071C12.2906 4.22898 11.1137 3.74816 9.73319 3.74816C8.35257 3.74816 7.17571 4.22898 6.2027 5.19071C5.22959 6.15235 4.74305 7.31546 4.74305 8.67995C4.74305 10.0444 5.22959 11.2074 6.2027 12.1692C7.17571 13.1308 8.35257 13.6117 9.73319 13.6117C11.1137 13.6117 12.2906 13.1308 13.2637 12.1692ZM24.8032 0.049342C27.2151 0.049342 29.2735 0.891773 30.9785 2.57684C32.6835 4.26191 33.5358 6.29617 33.5358 8.67995C33.5358 11.0636 32.6835 13.098 30.9785 14.7831C29.2735 16.468 27.2151 17.3106 24.8032 17.3106C22.3914 17.3106 20.3329 16.468 18.628 14.7831C16.9231 13.098 16.0706 11.0636 16.0706 8.67995C16.0706 6.29617 16.9231 4.26191 18.628 2.57684C20.3329 0.891773 22.3914 0.049342 24.8032 0.049342ZM24.8032 3.74816C23.4226 3.74816 22.2458 4.22898 21.2727 5.19071C20.2996 6.15235 19.8131 7.31546 19.8131 8.67995C19.8131 10.0444 20.2996 11.2074 21.2727 12.1692C22.2458 13.1308 23.4226 13.6117 24.8032 13.6117C26.1838 13.6117 27.3607 13.1308 28.3337 12.1692C29.3068 11.2074 29.7933 10.0444 29.7933 8.67995C29.7933 7.31546 29.3068 6.15235 28.3337 5.19071C27.3607 4.22898 26.1838 3.74816 24.8032 3.74816ZM42.2686 0.049342C44.6554 0.065755 46.6931 0.908291 48.3814 2.57684C50.0863 4.26191 50.9388 6.29617 50.9388 8.67995C50.9388 11.0636 50.0863 13.098 48.3814 14.7831C46.6931 16.4516 44.6554 17.2941 42.2686 17.3106H36.0309V0.049342H42.2686ZM42.2686 13.6117C43.6242 13.5953 44.7802 13.1144 45.7367 12.1692C46.7097 11.2074 47.1963 10.0444 47.1963 8.67995C47.1963 7.31546 46.7097 6.15235 45.7367 5.19071C44.7802 4.24539 43.6242 3.76457 42.2686 3.74816H39.7735V13.6117H42.2686ZM67.219 0.049342V3.74816H57.2389V6.83054H64.7239V10.5294H57.2389V13.6117H67.219V17.3106H53.4962V0.049342H67.219ZM69.714 0.049342H73.4566V13.6117H83.4368V17.3106H69.714V0.049342ZM89.6744 0.049342V17.3106H85.9319V0.049342H89.6744ZM95.9121 7.64425V17.3106H92.1695V0L104.645 9.71555V0.049342H108.387V17.3599L95.9121 7.64425ZM124.605 0.049342V3.74816H114.625V6.83054H122.11V10.5294H114.625V13.6117H124.605V17.3106H110.882V0.049342H124.605Z" fill="black"/>
<path d="M116.502 28.8965H124.165" stroke="black" stroke-width="0.5" stroke-linecap="round"/>
<path d="M114.368 31.1694C115.541 31.1694 116.492 30.2273 116.492 29.0652C116.492 27.903 115.541 26.9609 114.368 26.9609C113.196 26.9609 112.245 27.903 112.245 29.0652C112.245 30.2273 113.196 31.1694 114.368 31.1694Z" fill="black"/>
<path d="M8.66742 29.0646L0.999946 29.0647" stroke="black" stroke-width="0.5" stroke-linecap="round"/>
<path d="M10.3547 26.9634C9.18198 26.9634 8.23132 27.9055 8.23132 29.0676C8.23132 30.2298 9.18198 31.1719 10.3547 31.1719C11.5274 31.1719 12.478 30.2298 12.478 29.0676C12.478 27.9055 11.5274 26.9634 10.3547 26.9634Z" fill="black"/>
<path fill-rule="evenodd" clip-rule="evenodd" d="M20.581 32.9893V24.3587H18.6577V32.9893H20.581ZM24.7643 32.9893V28.1561L30.4727 32.9892V24.334H28.6015V29.0881L22.8931 24.334V32.9893H24.7643ZM37.3123 26.1834V24.334H31.7874V32.9646H33.6587V29.5739H37.3123V27.7245H33.6587V26.1834H37.3123ZM46.337 25.5977C45.4845 24.7553 44.4553 24.334 43.2494 24.334C42.0435 24.334 41.0143 24.7553 40.1618 25.5977C39.3093 26.4402 38.883 27.4574 38.883 28.6492C38.883 29.8411 39.3093 30.8583 40.1618 31.7008C41.0143 32.5433 42.0435 32.9646 43.2494 32.9646C44.4553 32.9646 45.4845 32.5433 46.337 31.7008C47.1895 30.8583 47.6158 29.8411 47.6158 28.6492C47.6158 27.4574 47.1895 26.4402 46.337 25.5977ZM41.4842 26.9046C41.9707 26.4238 42.5591 26.1834 43.2494 26.1834C43.9397 26.1834 44.5281 26.4238 45.0146 26.9046C45.5011 27.3855 45.7445 27.9671 45.7445 28.6492C45.7445 29.3315 45.5011 29.913 45.0146 30.3939C44.5281 30.8748 43.9397 31.1152 43.2494 31.1152C42.5591 31.1152 41.9707 30.8748 41.4842 30.3939C40.9977 29.913 40.7544 29.3315 40.7544 28.6492C40.7544 27.9671 40.9977 27.3855 41.4842 26.9046ZM52.5559 32.9646V26.1834H55.0509V24.334H48.1896V26.1834H50.6847V32.9646H52.5559ZM62.6473 26.1834V24.334H56.3828V32.9646H62.6473V31.1152H58.3468V29.5739H61.3999V27.7245H58.3468V26.1834H62.6473ZM71.8614 31.7008L70.539 30.3939C70.0524 30.8748 69.464 31.1152 68.7738 31.1152C68.0834 31.1152 67.495 30.8748 67.0085 30.3939C66.5219 29.913 66.2787 29.3315 66.2787 28.6492C66.2787 27.9671 66.5219 27.3855 67.0085 26.9046C67.495 26.4238 68.0834 26.1834 68.7738 26.1834C69.464 26.1834 70.0524 26.4238 70.539 26.9046L71.8614 25.5977C71.0089 24.7553 69.9797 24.334 68.7738 24.334C67.5678 24.334 66.5386 24.7553 65.6861 25.5977C64.8336 26.4402 64.4074 27.4574 64.4074 28.6492C64.4074 29.8411 64.8336 30.8583 65.6861 31.7008C66.5386 32.5433 67.5678 32.9646 68.7738 32.9646C69.9797 32.9646 71.0089 32.5433 71.8614 31.7008ZM75.0113 32.9646V29.5739H79.3777V32.9646H81.2489V24.334H79.3777V27.7245H75.0113V24.334H73.14V32.9646H75.0113ZM88.3978 24.334V26.1834V31.1152H92.0514V32.9646H88.3978H86.5265V24.334H88.3978ZM95.4609 26.1834V24.334H93.5897V32.9646H95.4609H99.1145V31.1152H95.4609V26.1834ZM103.415 29.815H101.857V32.9646L100.203 32.9988V24.334H102.074H103.415C103.415 24.334 105.976 24.334 106.064 27.0745C105.976 29.8113 103.415 29.815 103.415 29.815ZM101.87 25.6464L101.87 28.2714H102.974C102.974 28.2714 104.298 28.2714 104.325 26.9589C104.298 25.6464 102.974 25.6464 102.974 25.6464H101.87Z" fill="black"/>
</svg>
